<svg width="386" height="126" viewBox="0 0 386 126" fill="#E5E5E5" xmlns="http://www.w3.org/2000/svg">
<path d="M0.94751 0.814209L19.7092 63.4119H39.5499L20.7007 0.814209H0.94751Z" />
<path d="M63.7651 0.814209L82.5267 63.4119H102.358L83.5183 0.814209H63.7651Z" />
<path d="M126.573 0.814209L145.335 63.4119H165.175L146.326 0.814209H126.573Z" />
<path d="M189.391 0.814209L208.152 63.4119H227.983L209.144 0.814209H189.391Z" />
<path d="M252.198 0.814209L270.97 63.4119H290.801L271.952 0.814209H252.198Z" />
<path d="M315.016 0.814209L333.778 63.4119H353.609L334.769 0.814209H315.016Z" />
<path d="M385.017 63.4119L366.256 126H346.425L365.264 63.4119H385.017Z" />
<path d="M322.21 63.4119L303.438 126H283.607L302.447 63.4119H322.21Z" />
<path d="M259.392 63.4119L240.63 126H220.79L239.639 63.4119H259.392Z" />
<path d="M196.584 63.4119L177.813 126H157.982L176.821 63.4119H196.584Z" />
<path d="M133.767 63.4119L115.005 126H95.1642L114.013 63.4119H133.767Z" />
<path d="M70.9588 63.4119L52.1874 126H32.3564L51.1958 63.4119H70.9588Z" />
</svg>
