<svg width="16" height="16" viewBox="0 0 16 16" fill="none" xmlns="http://www.w3.org/2000/svg">
  <path fill-rule="evenodd" clip-rule="evenodd" d="M8 16C12.4183 16 16 12.4183 16 8C16 3.58172 12.4183 0 8 0C3.58172 0 0 3.58172 0 8C0 12.4183 3.58172 16 8 16ZM6.70711 2.29289C6.31658 1.90237 5.68342 1.90237 5.29289 2.29289C4.90237 2.68342 4.90237 3.31658 5.29289 3.70711L9.38579 7.8L5.29289 11.8929C4.90237 12.2834 4.90237 12.9166 5.29289 13.3071C5.68342 13.6976 6.31658 13.6976 6.70711 13.3071L11.5071 8.50711C11.8976 8.11658 11.8976 7.48342 11.5071 7.09289L6.70711 2.29289Z" fill="#003A70" />
</svg>